<svg width="960" height="320" viewBox="0 0 960 320" fill="none" xmlns="http://www.w3.org/2000/svg">
  <rect width="960" height="320" rx="32" fill="#FCF7F1"/>
  <rect x="36" y="36" width="248" height="248" rx="64" fill="#FFF7EE" stroke="#E6D6C7" stroke-width="8"/>
  <path d="M110 95C128 74 155 66 183 70C209 73 229 88 229 108C229 126 214 138 189 142L159 147C140 150 129 157 129 170C129 185 145 197 168 200C192 203 214 197 228 184" stroke="#1D6F75" stroke-width="18" stroke-linecap="round"/>
  <path d="M95 102C104 117 116 126 130 130" stroke="#D95D39" stroke-width="10" stroke-linecap="round"/>
  <path d="M224 177C234 170 242 159 247 146" stroke="#D95D39" stroke-width="10" stroke-linecap="round"/>
  <path d="M86 146H103" stroke="#D95D39" stroke-width="10" stroke-linecap="round"/>
  <path d="M243 132H260" stroke="#D95D39" stroke-width="10" stroke-linecap="round"/>
  <text x="334" y="146" fill="#1B120D" font-family="Inter, Arial, sans-serif" font-size="76" font-weight="800">SpeakAce</text>
  <text x="338" y="193" fill="#1D6F75" font-family="Inter, Arial, sans-serif" font-size="28" font-weight="700">AI Speaking Coach</text>
  <text x="338" y="236" fill="#6C5A4F" font-family="Inter, Arial, sans-serif" font-size="24">Waveform S monogram</text>
</svg>
